<?xml version="1.0" encoding="UTF-8"?>
<svg id="Camada_1" data-name="Camada 1" xmlns="http://www.w3.org/2000/svg" viewBox="0 0 863.78 243.92">
  <defs>
    <style>
      .cls-1 {
        fill: #fafafa;
      }
    </style>
  </defs>
  <path class="cls-1" d="m130.95,32.74v119.5c0,5.74-.98,11.24-2.8,16.36-4.92,13.96-15.99,25.02-29.94,29.94-5.11,1.82-10.62,2.8-16.36,2.8s-11.25-.98-16.38-2.81c-13.96-4.92-25.01-15.97-29.93-29.93-1.82-5.12-2.8-10.62-2.8-16.36s.98-11.25,2.81-16.38c4.92-13.94,15.97-25,29.92-29.92,5.12-1.83,10.64-2.81,16.38-2.81s11.25.98,16.36,2.8h0c0-16.38-13.41-28.59-29.78-28.94-13.49-.29-20.89,1.45-29.16,5.9-5.04,2.71-9.69,6.11-13.83,10.05-3.3,3.14-6.33,6.55-9.07,10.19-7.15,9.51-12.28,20.64-14.72,32.73-1.08,5.3-1.64,10.77-1.64,16.38s.56,11.08,1.64,16.36c2.45,12.1,7.57,23.22,14.72,32.74,4.65,6.2,10.18,11.73,16.38,16.38,9.51,7.15,20.64,12.28,32.73,14.72,5.3,1.08,10.77,1.64,16.38,1.64s11.08-.56,16.36-1.64c12.1-2.45,23.22-7.57,32.74-14.72,6.2-4.65,11.73-10.18,16.38-16.38,7.15-9.52,12.28-20.64,14.72-32.74,1.08-5.28,1.64-10.76,1.64-16.36V0c-18.08,0-32.74,14.66-32.74,32.74Z"/>
  <circle class="cls-1" cx="81.85" cy="152.24" r="30.93" transform="translate(-90.13 169.6) rotate(-67.5)"/>
  <path class="cls-1" d="m258.8,113.05c-9.21-7.99-18.77-11.99-28.65-11.99h-2.85c-9.08,0-18.09,3.45-27.03,10.36-12.19,10.97-18.29,24.39-18.29,40.24v.41c0,11.52,3.45,22.08,10.36,31.7,10.16,12.47,22.15,18.69,35.97,18.69h.61c13.55,0,25.27-5.89,35.16-17.68,3.25-4.6,5.35-8.13,6.3-10.57,0-.02-.16-.12-.49-.28-9.28-4.69-20.5-3.58-28.67,2.85-4.24,3.34-8.9,6.17-12.5,6.17-7.05,0-13.28-2.98-18.7-8.94-3.66-3.66-6.3-9.08-7.93-16.26h72.96c.13,0,.2-.95.2-2.85v-3.05c0-9.62-2.44-18.76-7.32-27.43-1.63-3.25-4.67-7.04-9.15-11.38Zm-5.49,26.21h-49.38c.81-1.62,1.35-2.84,1.63-3.66,5.96-9.89,13.62-14.83,22.96-14.83,6.1,0,11.72,2.23,16.87,6.71,4.2,4.34,6.84,8.2,7.93,11.58v.2Z"/>
  <path class="cls-1" d="m372.2,90.49v23.57c-1.09-1.22-2.51-2.57-4.27-4.06-7.45-5.96-15.85-8.94-25.2-8.94h-.2c-10.97,0-21.07,3.59-30.28,10.77-1.22.95-2.98,2.64-5.28,5.08-4.74,5.28-8.13,10.64-10.16,16.05-2.31,6.1-3.45,12.4-3.45,18.9,0,8.67,2.1,16.87,6.3,24.59,1.35,2.71,3.25,5.56,5.69,8.54,2.71,2.98,4.88,5.08,6.5,6.3,1.76,1.49,3.45,2.78,5.08,3.86,8.13,4.88,16.53,7.32,25.2,7.32h1.42c3.52,0,7.86-.75,13.01-2.23,2.57-.81,4.88-1.83,6.91-3.05,1.49-.95,3.32-2.23,5.49-3.86,1.08-1.08,2.17-2.23,3.25-3.45v10.16h0c10.77,0,19.51-8.73,19.51-19.51v-109.54c-10.77,0-19.51,8.73-19.51,19.51Zm0,61.58c0,6.64-1.97,12.8-5.89,18.49-.95,1.22-2.24,2.64-3.86,4.27-.81.68-1.42,1.22-1.83,1.63-2.17,1.63-4,2.78-5.49,3.46-4.2,2.03-8.33,3.05-12.4,3.05-8.27,0-15.44-3.25-21.54-9.75-2.31-2.71-4-5.28-5.08-7.72-2.03-4.33-3.05-8.81-3.05-13.41v-.41c0-7.72,2.57-14.63,7.72-20.73,6.1-6.77,13.48-10.16,22.15-10.16,3.93,0,8.2,1.08,12.8,3.25,2.03.95,4.06,2.37,6.1,4.27,1.9,1.76,3.11,2.98,3.66,3.66,3.39,9.89,5.62,16.46,6.71,19.71v.41Z"/>
  <path class="cls-1" d="m489.25,122.46v39.16c0,7.18-2.23,12.13-6.7,14.83-3.52,2.71-9.42,4.06-17.68,4.06h-1.63c-4.47,0-8.2-.68-11.18-2.03-6.77-2.57-10.16-8.06-10.16-16.46v-58.93h0c-10.89,0-19.71,8.83-19.71,19.71v39.02c0,7.05,1.29,13.21,3.86,18.49,7.59,13.14,20.19,19.71,37.8,19.71h.81c4.33,0,7.99-.34,10.97-1.02,5.56-1.63,10.09-3.72,13.62-6.3v6.5h.15c10.69,0,19.36-8.67,19.36-19.36v-76.76h0c-10.75-.07-19.5,8.62-19.5,19.37Z"/>
  <path class="cls-1" d="m593.01,178.83c-4.07,2.32-8.01,4.13-10.28,4.13-6.64,0-12.67-2.17-18.09-6.5-1.63-1.22-3.19-2.77-4.68-4.67-4.74-5.96-7.11-12.6-7.11-19.92,0-6.77,2.03-12.94,6.1-18.49.41-.95,1.69-2.5,3.86-4.67,5.82-5.28,12.4-7.93,19.71-7.93,2.78,0,6.68,1.63,10.55,3.76,9.32,5.13,20.69,4.84,29.68-.86.14-.09.28-.18.41-.26,0-.27-.47-1.02-1.42-2.23-.95-1.35-2.64-3.32-5.08-5.89-2.03-2.03-3.86-3.59-5.49-4.67-8.81-6.37-18.29-9.55-28.45-9.55h-.2c-9.75,0-18.9,2.91-27.43,8.74-2.03,1.22-4.4,3.12-7.11,5.69-2.3,2.58-4,4.67-5.08,6.3-1.49,2.17-2.85,4.34-4.06,6.5-3.66,7.59-5.49,15.18-5.49,22.76v1.63c0,4.88.88,10.09,2.64,15.65,1.22,3.52,2.44,6.37,3.66,8.54,1.22,2.3,3.18,5.08,5.89,8.33,1.22,1.49,3.05,3.39,5.49,5.69,1.49,1.08,3.05,2.23,4.67,3.45,8.26,5.42,17.07,8.13,26.42,8.13h.81c8.67,0,17.07-2.44,25.2-7.32,1.63-1.08,3.52-2.5,5.69-4.27.95-.68,2.57-2.24,4.88-4.67,2.03-2.3,3.59-4.4,4.67-6.3l-.24-.16c-9.08-5.91-20.7-6.28-30.12-.92Z"/>
  <path class="cls-1" d="m677.11,180.52s-.05,0-.08,0c-2.04,0-3.86-.54-5.49-1.62-2.71-1.22-4.06-3.73-4.06-7.52v-49.18h25.4v-19.51l-.21-.2h-25.2v-31.5s-33.94,51.21-34.14,51.21h14.63v49.99c0,4.06.88,8.2,2.64,12.4.68,1.22,1.56,2.58,2.64,4.06.81.95,1.42,1.7,1.83,2.24,1.49,1.49,2.71,2.58,3.66,3.25,5.69,3.93,11.72,5.89,18.09,5.89h.21c3.25,0,7.04-.54,11.38-1.63,3.66-1.08,6.3-1.96,7.93-2.64-.55-1.39-1.08-2.71-1.57-3.96-2.84-7.17-9.94-11.45-17.65-11.28Z"/>
  <path class="cls-1" d="m718.48,70.99h0v109.54c0,10.77,8.73,19.51,19.51,19.51h0v-109.54c0-10.77-8.73-19.51-19.51-19.51Z"/>
  <path class="cls-1" d="m863.78,102.69c-13.08,0-24.91,7.74-30.15,19.73-9.79,22.45-23,52.72-23.1,53.02-4.74-11.03-15-35.23-22.4-52.69-5.15-12.16-17.08-20.06-30.29-20.06h-.76c1.22,2.85,39.42,89.76,42.68,97.34-9.62,21.81-16.06,36.38-19.31,43.69v.2c13.07,0,24.9-7.74,30.14-19.72,16.33-37.37,50.37-115.17,53.18-121.52h0Z"/>
</svg>