<?xml version="1.0" encoding="UTF-8"?>
<svg id="Camada_2" data-name="Camada 2" xmlns="http://www.w3.org/2000/svg" viewBox="0 0 107.21 112.24">
  <defs>
    <style>
      .cls-1 {
        fill-rule: evenodd;
      }
    </style>
  </defs>
  <g id="Camada_1-2" data-name="Camada 1">
    <path class="cls-1" d="m38.49,94.74h-.55c-3.09,0-5.58,2.5-5.58,5.57v6.35c0,3.08,2.49,5.57,5.58,5.57h31.35c3.07,0,5.56-2.5,5.56-5.57v-6.35c0-3.08-2.49-5.57-5.56-5.57h-.54l9.01-11.64c2.32-3.01,2.81-7.06,1.25-10.53-3.99-8.89-13.29-29.58-18.8-41.83-1.17-2.6-3.74-4.26-6.59-4.26s-5.42,1.67-6.59,4.26c-5.5,12.25-14.79,32.94-18.78,41.83-1.56,3.47-1.09,7.52,1.25,10.53l9.01,11.64Zm30.8,4.99h-31.35c-.33,0-.59.26-.59.58v6.35c0,.32.27.58.59.58h31.35c.33,0,.58-.26.58-.58v-6.35c0-.32-.25-.58-.58-.58Zm-13.19-65.82v22.11c3.35,1.06,5.78,4.19,5.78,7.89,0,4.57-3.71,8.28-8.28,8.28s-8.28-3.71-8.28-8.28c0-3.7,2.43-6.84,5.78-7.89v-22.11l-18.28,40.73c-.81,1.77-.56,3.84.64,5.38l11.4,14.72h17.5l11.4-14.72c1.2-1.54,1.44-3.61.64-5.38l-18.3-40.73Zm-11.14-27.75h-26.78c-1.03-2.96-3.85-5.08-7.16-5.08-4.18,0-7.58,3.4-7.58,7.58s3.4,7.58,7.58,7.58c3.31,0,6.13-2.13,7.16-5.08h14c-15.45,7.63-26.27,23.25-27.05,41.45-2.97,1.02-5.13,3.85-5.13,7.17,0,4.18,3.4,7.58,7.58,7.58s7.58-3.4,7.58-7.58c0-3.29-2.1-6.09-5.04-7.14.95-20.17,15.65-36.78,34.92-40.63.22,1.3.84,2.51,1.78,3.46,1.2,1.2,2.82,1.87,4.52,1.87h4.57c1.68,0,3.32-.67,4.5-1.87.95-.94,1.58-2.16,1.8-3.46,19.27,3.85,33.96,20.46,34.9,40.63-2.93,1.05-5.04,3.85-5.04,7.14,0,4.18,3.4,7.58,7.58,7.58s7.58-3.4,7.58-7.58c0-3.32-2.13-6.15-5.11-7.17-.78-18.2-11.6-33.82-27.04-41.45h14c1.03,2.96,3.83,5.08,7.16,5.08,4.18,0,7.58-3.4,7.58-7.58s-3.4-7.58-7.58-7.58c-3.32,0-6.13,2.12-7.16,5.08h-26.78c-.05-1.61-.72-3.15-1.87-4.3-1.18-1.2-2.82-1.87-4.5-1.87h-4.57c-1.7,0-3.32.67-4.52,1.87-1.14,1.15-1.81,2.69-1.86,4.3h0Zm8.65,61.04c-1.81,0-3.29-1.47-3.29-3.29s1.48-3.29,3.29-3.29,3.29,1.47,3.29,3.29-1.46,3.29-3.29,3.29Zm46.03-4.84c-1.42,0-2.59-1.16-2.59-2.59s1.17-2.59,2.59-2.59,2.59,1.16,2.59,2.59-1.16,2.59-2.59,2.59Zm-92.06,0c-1.42,0-2.59-1.16-2.59-2.59s1.17-2.59,2.59-2.59,2.59,1.16,2.59,2.59-1.16,2.59-2.59,2.59ZM57.29,10.94v-4.56c0-.37-.14-.72-.41-.99-.27-.26-.62-.41-.98-.41h-4.57c-.37,0-.73.15-.98.41-.26.26-.42.62-.42.99v4.56c0,.37.16.73.42.99.25.26.61.41.98.41h4.57c.36,0,.72-.14.98-.41.27-.26.41-.62.41-.99Zm38.92.31c-1.44,0-2.59-1.16-2.59-2.59s1.15-2.59,2.59-2.59,2.59,1.16,2.59,2.59-1.17,2.59-2.59,2.59Zm-85.19,0c-1.43,0-2.59-1.16-2.59-2.59s1.16-2.59,2.59-2.59,2.59,1.16,2.59,2.59-1.16,2.59-2.59,2.59Z"/>
  </g>
</svg>