<?xml version="1.0" encoding="utf-8"?>
<!-- Generator: Adobe Illustrator 27.3.1, SVG Export Plug-In . SVG Version: 6.00 Build 0)  -->
<svg version="1.1" id="Camada_2_00000127037434959808945880000004923974111489869966_"
	 xmlns="http://www.w3.org/2000/svg" xmlns:xlink="http://www.w3.org/1999/xlink" x="0px" y="0px" viewBox="0 0 20.1 26.8"
	 style="enable-background:new 0 0 20.1 26.8;" xml:space="preserve">
<style type="text/css">
	.st0{fill-rule:evenodd;clip-rule:evenodd;fill:#330066;}
</style>
<g id="Camada_1-2">
	<path class="st0" d="M1.7,0C0.8,0,0,0.8,0,1.7v23.4c0,0.9,0.8,1.7,1.7,1.7h16.7c0.9,0,1.7-0.8,1.7-1.7V5h-3.1c-1,0-1.9-0.8-1.9-1.9
		V0H1.7z M15.7,0.6v2.5c0,0.7,0.6,1.3,1.3,1.3h2.5C19.5,4.4,15.7,0.6,15.7,0.6z M2.8,4.5c-0.2-0.2-0.2-0.4,0-0.6l1.3-1.3
		c0.1-0.1,0.1-0.1,0.2-0.1c0.3,0,0.4,0.3,0.2,0.5l-1,1c-0.1,0.1-0.1,0.2,0,0.2l1,1c0.2,0.2,0.1,0.5-0.2,0.5c-0.1,0-0.2,0-0.2-0.1
		L2.8,4.5L2.8,4.5z M5.9,4.2l0.7-1.5c0.1-0.1,0.2-0.2,0.3-0.2c0.3,0,0.5,0.3,0.3,0.5L6.7,4.2L5.9,5.6C5.9,5.8,5.8,5.8,5.6,5.8
		c-0.3,0-0.5-0.3-0.3-0.5C5.3,5.3,5.9,4.2,5.9,4.2z M8.5,2.6l1.3,1.3c0.2,0.2,0.2,0.4,0,0.6L8.5,5.8C8.4,5.8,8.3,5.8,8.2,5.8
		C8,5.8,7.8,5.5,8,5.3l1.1-1.1c0.1-0.1,0.1-0.2,0-0.2L8,3C7.8,2.8,8,2.5,8.2,2.5C8.3,2.5,8.4,2.5,8.5,2.6L8.5,2.6z M4.9,23.4h0.9
		v-3.6H4.9v1.4H3.6v-1.4H2.8v3.6h0.9v-1.5h1.3V23.4z M8,20.5H9v-0.7h-3v0.7h1v2.9H8V20.5z M10.5,19.9l0.8,2.5l0.8-2.5h1.1v3.6h-0.9
		v-0.8l0.1-1.7l-0.9,2.5h-0.6l-0.9-2.5l0.1,1.7v0.8H9.4v-3.6L10.5,19.9L10.5,19.9z M16.2,22.8h-1.5v-2.9h-0.9v3.6h2.4V22.8z"/>
</g>
</svg>
