<?xml version="1.0" encoding="utf-8"?>
<!-- Generator: Adobe Illustrator 27.3.1, SVG Export Plug-In . SVG Version: 6.00 Build 0)  -->
<svg version="1.1" id="Camada_2_00000166658099956785389280000008439127926664998311_"
	 xmlns="http://www.w3.org/2000/svg" xmlns:xlink="http://www.w3.org/1999/xlink" x="0px" y="0px" viewBox="0 0 83.3 102.3"
	 style="enable-background:new 0 0 83.3 102.3;" xml:space="preserve">
<style type="text/css">
	.st0{fill:#330066;}
</style>
<g id="Camada_1-2">
	<g>
		<path class="st0" d="M56.8,4.2v20.3c0,0.9,0.8,1.7,1.7,1.7h20.5c0.9,0.1,1.8-0.6,1.9-1.5c0.1-0.6-0.2-1.1-0.6-1.5L59.7,3
			c-0.6-0.7-1.6-0.8-2.4-0.2C56.9,3.1,56.7,3.6,56.8,4.2z"/>
		<polygon class="st0" points="19.7,66.7 24,82.3 15.2,82.3 		"/>
		<path class="st0" d="M81.1,31.6H53.6c-1.2,0-2.2-1-2.2-2.2l0,0V2.2c0-1.2-1-2.2-2.2-2.2H2.2C1,0,0,1,0,2.2l0,0v97.8
			c0,1.2,1,2.2,2.2,2.2h78.8c1.2,0,2.2-1,2.2-2.2V33.8C83.3,32.6,82.3,31.6,81.1,31.6z M40.3,57.9c0.6-0.1,1.2-0.2,1.9-0.2
			s1.3,0,1.8,0h1.9c0.7,0,1.3,0.1,1.9,0.2c0.1,0.6,0.2,1.1,0.2,1.7v3.4c0,0.6-0.1,1.1-0.2,1.7c-0.6,0.1-1.3,0.2-1.9,0.2h-3.7
			c-0.6,0-1.3-0.1-1.9-0.2c-0.2-1.1-0.3-2.3-0.3-3.5C40,60.1,40.1,59,40.3,57.9L40.3,57.9z M31.6,96.3c-1.3,0-2.6-0.2-3.8-0.4
			l-2.1-7.4H13.5l-2.1,7.4c-1.2,0.2-2.4,0.3-3.6,0.3c-1.3,0-2.5-0.1-3.8-0.3l11.8-37.1c0.7-0.1,1.4-0.2,2.1-0.2s1.4,0,2.2,0h2
			c0.6,0,1.4,0.1,2.2,0.2l11.6,37.1C34.4,96.1,33,96.3,31.6,96.3L31.6,96.3z M48.5,95.9c-1.2,0.2-2.4,0.3-3.6,0.3
			c-1.2,0-2.4-0.1-3.6-0.3v-21h-3.5c-0.1-0.5-0.2-0.9-0.2-1.4V72c0-0.9,0.1-1.8,0.3-2.7h10.6L48.5,95.9L48.5,95.9z"/>
	</g>
</g>
</svg>
