<?xml version="1.0" encoding="utf-8"?>
<!-- Generator: Adobe Illustrator 27.3.1, SVG Export Plug-In . SVG Version: 6.00 Build 0)  -->
<svg version="1.1" id="Camada_2_00000130620668889092833220000015428636744992531122_"
	 xmlns="http://www.w3.org/2000/svg" xmlns:xlink="http://www.w3.org/1999/xlink" x="0px" y="0px" viewBox="0 0 191.8 235.3"
	 style="enable-background:new 0 0 191.8 235.3;" xml:space="preserve">
<style type="text/css">
	.st0{fill:#330066;}
</style>
<g id="Camada_1-2">
	<g>
		<path class="st0" d="M130.5,9.6v46.6c0,2.1,1.7,3.9,3.9,3.9h47.2c2.1,0.2,4-1.3,4.3-3.4c0.1-1.3-0.4-2.6-1.4-3.5l-47-46.5
			c-1.3-1.7-3.8-1.9-5.4-0.6C130.9,7.1,130.4,8.3,130.5,9.6L130.5,9.6z"/>
		<path class="st0" d="M186.4,72.7h-63.2c-2.9,0-5.2-2.3-5.2-5.2l0,0V5.2c0-2.9-2.3-5.2-5.2-5.2H5.2C2.3,0,0,2.3,0,5.2l0,0v224.9
			c0,2.9,2.3,5.2,5.2,5.2h181.4c2.9,0,5.2-2.3,5.2-5.2V77.7C191.7,74.9,189.3,72.6,186.4,72.7C186.4,72.7,186.4,72.7,186.4,72.7z
			 M33.8,220.6c-2.9,0.5-5.8,0.7-8.6,0.7c-3,0-5.9-0.3-8.8-0.7v-85.1c2.9-0.5,5.8-0.7,8.6-0.7c2.9,0,5.9,0.2,8.8,0.7L33.8,220.6z
			 M103.9,218.6c-3.7,1.1-7.5,2-11.3,2.6c-4.6,0.6-9.3,0.9-13.9,0.9c-4.1,0.1-8.1-0.4-12-1.4c-3.7-1.1-7.2-2.9-10.2-5.4
			c-3-2.6-5.4-5.9-7-9.6c-3.3-8.8-3.4-18.5-0.3-27.4c2.7-7.8,8.6-14.1,16.2-17.3c4.1-1.7,8.5-2.6,12.9-2.6h4.5
			c1.5,0.1,3,0.4,4.4,0.8v-25c1.4-0.2,2.8-0.4,4.2-0.5h8.3c1.4,0.1,2.8,0.3,4.2,0.5L103.9,218.6L103.9,218.6z M79.6,171.1
			c-2.4-0.1-4.7,0.5-6.8,1.6c-1.9,1.1-3.5,2.5-4.8,4.3c-1.3,1.9-2.3,4-2.8,6.3c-0.6,2.5-0.9,5-0.9,7.5c-0.1,2.8,0.3,5.6,1.2,8.2
			c0.7,2,1.8,3.9,3.3,5.4c1.4,1.4,3.1,2.4,4.9,2.9c2,0.6,4.1,0.9,6.1,0.9c1.3,0.1,2.6,0.1,3.9,0c1.2-0.1,2.5-0.4,3.7-0.8v-35.4
			C84.8,171.3,82.2,171,79.6,171.1L79.6,171.1L79.6,171.1z"/>
	</g>
</g>
</svg>
