<?xml version="1.0" encoding="utf-8"?>
<!-- Generator: Adobe Illustrator 27.3.1, SVG Export Plug-In . SVG Version: 6.00 Build 0)  -->
<svg version="1.1" id="Camada_2_00000075135477514244715440000011024951091206077824_"
	 xmlns="http://www.w3.org/2000/svg" xmlns:xlink="http://www.w3.org/1999/xlink" x="0px" y="0px" viewBox="0 0 19.3 25.7"
	 style="enable-background:new 0 0 19.3 25.7;" xml:space="preserve">
<style type="text/css">
	.st0{fill-rule:evenodd;clip-rule:evenodd;fill:#330066;}
</style>
<g id="Camada_1-2">
	<path class="st0" d="M1.6,0C0.7,0,0,0.7,0,1.6v22.5c0,0.9,0.7,1.6,1.6,1.6h16.1c0.9,0,1.6-0.7,1.6-1.6V4.8h-3c-1,0-1.8-0.8-1.8-1.8
		V0H1.6z M15.1,0.6V3c0,0.7,0.5,1.2,1.2,1.2h2.4C18.7,4.2,15.1,0.6,15.1,0.6z M2.7,4.3c-0.2-0.2-0.2-0.4,0-0.6l1.2-1.2
		c0,0,0.1-0.1,0.2-0.1c0.2,0,0.4,0.3,0.2,0.5l-1,1C3.3,4,3.3,4.1,3.3,4.2l1,1c0.2,0.2,0.1,0.5-0.2,0.5c-0.1,0-0.2,0-0.2-0.1L2.7,4.3
		L2.7,4.3z M5.6,4l0.7-1.4c0.1-0.1,0.2-0.2,0.3-0.2c0.3,0,0.4,0.3,0.3,0.5L6.4,4L5.7,5.4C5.7,5.6,5.5,5.6,5.4,5.6
		C5.1,5.6,5,5.4,5.1,5.1C5.1,5.1,5.6,4,5.6,4z M8.1,2.5l1.2,1.2c0.2,0.2,0.2,0.4,0,0.6L8.1,5.6C8.1,5.6,8,5.6,7.9,5.6
		c-0.2,0-0.4-0.3-0.2-0.5l1-1c0.1-0.1,0.1-0.2,0-0.2l-1-1C7.6,2.7,7.7,2.4,7.9,2.4C8,2.4,8.1,2.4,8.1,2.5L8.1,2.5z M7,21.3
		c0.1,0.1,0.1,0.2,0.1,0.3c0,0.1,0,0.2-0.1,0.2S6.9,22,6.7,22c-0.2,0-0.4,0-0.5-0.1c-0.1-0.1-0.1-0.2-0.1-0.4H5.3
		c0,0.2,0.1,0.4,0.2,0.6s0.3,0.3,0.5,0.4c0.2,0.1,0.5,0.1,0.8,0.1c0.4,0,0.7-0.1,0.9-0.3S8,21.9,8,21.6c0-0.4-0.2-0.7-0.6-0.9
		c-0.2-0.1-0.3-0.2-0.6-0.2c-0.2-0.1-0.4-0.1-0.5-0.2c-0.1-0.1-0.1-0.1-0.1-0.2c0-0.1,0-0.2,0.1-0.2s0.2-0.1,0.3-0.1s0.3,0,0.3,0.1
		s0.1,0.2,0.1,0.3H8c0-0.2-0.1-0.4-0.2-0.6c-0.1-0.2-0.3-0.3-0.5-0.4C7.2,19.1,7,19,6.7,19s-0.5,0-0.7,0.1s-0.4,0.2-0.5,0.3
		c-0.1,0.1-0.2,0.3-0.2,0.5c0,0.4,0.2,0.7,0.7,0.9C6.2,21,6.4,21,6.6,21.1S7,21.3,7,21.3L7,21.3z M4.9,19.1H4v2.4
		c0,0.1,0,0.3-0.1,0.4c-0.1,0.1-0.2,0.1-0.3,0.1c-0.1,0-0.2,0-0.3-0.1s-0.1-0.2-0.1-0.3H2.5c0,0.4,0.1,0.6,0.3,0.8
		c0.2,0.2,0.5,0.3,0.9,0.3c0.2,0,0.4,0,0.6-0.1c0.2-0.1,0.3-0.2,0.4-0.4s0.2-0.4,0.2-0.6L4.9,19.1L4.9,19.1z"/>
</g>
</svg>
