<?xml version="1.0" encoding="UTF-8"?>
<svg id="Camada_2" data-name="Camada 2" xmlns="http://www.w3.org/2000/svg" viewBox="0 0 535.7 668.21">
  <defs>
    <style>
      .cls-1 {
        fill: #fafafa;
      }
    </style>
  </defs>
  <g id="Camada_1-2" data-name="Camada 1">
    <path class="cls-1" d="m480.22,238.66s52.43,213.53-133.43,300.02c-7.17,3.34-14.9,5.41-22.8,5.74-11.08.48-25.28-2.09-35.91-14.98,0,0-23.69-26.71,9.05-71.08,0,0,14.39-22.46,61.23-68.03,11.28-10.98,21.37-23.13,30.1-36.23h0c76.68-134.41-16.8-228.32-16.8-228.32L245.87,0s-9.48,57.73-61.17,103.82l-100.2,100.2C46.15,242.37,18.84,290.55,6.83,343.43c-10.16,44.71-11.21,99.32,12.44,158.45,0,0,62.04,166.29,247.28,166.29,0,0,109.85,4.31,190.84-78.84,0,0,159.83-158.53,22.83-350.67Zm-226.87,92.19l-48.33,48.33c-13.82,13.82-24.45,30.59-30.47,49.19-8.1,25.02-10.76,59.73,11,98.51-75.69-57.59-77.08-121.41-63.82-166.22,8.06-27.24,23.16-51.88,43.25-71.96l103.01-103.01s72.78,59.98,5.85,125.14c-6.85,6.66-13.74,13.28-20.49,20.03Z"/>
  </g>
</svg>