<?xml version="1.0" encoding="UTF-8"?>
<svg id="Camada_1" data-name="Camada 1" xmlns="http://www.w3.org/2000/svg" viewBox="0 0 984.48 166.67">
  <defs>
    <style>
      .cls-1 {
        fill: #fff;
      }
    </style>
  </defs>
  <polygon class="cls-1" points="63.43 122.34 62.12 122.34 33.61 52.83 0 52.83 0 165.1 26.43 165.1 26.43 95.75 27.36 95.75 54.33 164.39 71.22 164.39 98.19 96.13 99.12 96.13 99.12 165.1 125.55 165.1 125.55 52.83 91.94 52.83 63.43 122.34"/>
  <path class="cls-1" d="m175.54,52.83l-37.88,112.28h29.16l7.39-23.57h38.77l7.41,23.57h29.16l-37.89-112.28h-36.13Zm5.12,68.09l12.47-39.81h.88l12.5,39.81h-25.85Z"/>
  <path class="cls-1" d="m310.35,123.49h22.24c0,3.5-.92,6.94-2.67,9.98-1.85,3.06-4.6,5.48-7.86,6.93-3.46,1.63-7.67,2.44-12.64,2.44-5.63,0-10.41-1.33-14.35-3.99-3.93-2.66-6.95-6.54-9.04-11.61-2.09-5.08-3.13-11.23-3.13-18.45s1.08-13.31,3.24-18.28c2.15-5.01,5.21-8.84,9.18-11.49,3.97-2.64,8.68-3.96,14.12-3.95,2.52-.02,5.02.3,7.45.97,2.16.58,4.2,1.54,6.03,2.82,1.74,1.23,3.24,2.76,4.44,4.52,1.25,1.87,2.17,3.94,2.73,6.12h27.47c-.6-5.43-2.32-10.67-5.04-15.41-2.71-4.67-6.3-8.78-10.57-12.1-4.48-3.47-9.52-6.14-14.91-7.89-5.87-1.9-12.01-2.85-18.17-2.79-7.17-.06-14.28,1.24-20.97,3.83-6.42,2.52-12.24,6.37-17.08,11.29-5.06,5.19-8.97,11.38-11.48,18.18-2.73,7.14-4.1,15.31-4.1,24.53,0,11.84,2.28,22.07,6.83,30.68,4.26,8.33,10.85,15.23,18.97,19.87,8.12,4.64,17.53,6.96,28.24,6.96,9.65,0,18.19-1.92,25.63-5.76,7.31-3.71,13.39-9.44,17.54-16.5,4.26-7.16,6.39-15.77,6.39-25.82v-14.86h-48.47v19.79Z"/>
  <path class="cls-1" d="m404.26,52.83l-37.88,112.28h29.17l7.39-23.57h38.77l7.4,23.57h29.17l-37.87-112.28h-36.13Zm5.13,68.1l12.49-39.81h.88l12.47,39.81h-25.84Z"/>
  <polygon class="cls-1" points="490.05 74.86 544.54 74.86 490 149.64 490 165.1 578.82 165.1 578.82 143.06 524.32 143.06 578.87 68.29 578.87 52.82 490.05 52.82 490.05 74.86"/>
  <rect class="cls-1" x="595.48" y="52.83" width="27.14" height="112.28"/>
  <polygon class="cls-1" points="708.08 117.52 707.15 117.52 662.96 52.83 639.61 52.83 639.61 165.1 666.74 165.1 666.74 100.3 667.46 100.3 712.14 165.1 735.17 165.1 735.17 52.83 708.08 52.83 708.08 117.52"/>
  <polygon class="cls-1" points="752.16 165.1 830.45 165.1 830.45 143.06 779.29 143.06 779.29 119.98 826.44 119.98 826.44 97.89 779.29 97.89 779.29 74.87 830.45 74.87 830.45 52.82 752.16 52.82 752.16 165.1"/>
  <path class="cls-1" d="m984.46,159.37l-11.41-108.13c-.35-3.35-3.18-5.89-6.55-5.89h-15.11v-14.35C951.38,13.87,937.47-.01,920.34,0c-17.12.01-30.99,13.89-31.01,31v14.35h-15.13c-3.36,0-6.18,2.53-6.55,5.87l-11.56,108.16c-.39,3.61,2.23,6.85,5.84,7.24.23,0,.46.04.68.04h115.28c3.63,0,6.58-2.94,6.58-6.58.02-.26,0-.48-.01-.72m-34.08-102.29c3.19,0,5.79,2.58,5.79,5.78,0,3.2-2.58,5.79-5.78,5.79-3.19,0-5.79-2.58-5.79-5.78h0c0-3.2,2.59-5.79,5.78-5.79m-29.84-48.2c12.19,0,22.08,9.88,22.09,22.07h0v14.36h-44v-14.35h-.18c0-12.2,9.89-22.09,22.09-22.09m-30.36,48.22c3.2,0,5.79,2.58,5.8,5.77,0,3.19-2.58,5.79-5.77,5.8-3.2,0-5.79-2.58-5.8-5.77v-.05c0-3.19,2.59-5.77,5.77-5.77v.02Zm24.42,92.52c0,.83-.37,1.61-1.03,2.12-.64.55-1.46.86-2.3.86h-27.89c-2.71,0-4.81-.75-6.32-2.25-1.54-1.59-2.36-3.75-2.27-5.96l.09-55.93c0-.79.34-1.54.95-2.05.66-.58,1.51-.88,2.38-.85h7.96c.84,0,1.65.28,2.3.81.65.48,1.04,1.24,1.04,2.05l.09,50.97c0,.6.15.89.45.89h21.18c.88-.03,1.75.28,2.4.87.6.51.95,1.26.94,2.05l.02,6.44Zm51.15-8.03c0,3.55-1.2,6.28-3.61,8.2-2.39,1.89-5.35,2.89-8.4,2.84h-28.24c-.91.04-1.81-.29-2.48-.9-.59-.52-.93-1.26-.94-2.05v-6.48c0-.81.38-1.58,1.04-2.05.68-.54,1.52-.83,2.39-.82h24.91c.48,0,.72-.38.72-1.08v-6.96c0-1.37-.33-2.23-.99-2.53l-19.67-8.2c-5.95-2.4-8.93-7.22-8.94-14.43v-10.39c0-3.6,1.19-6.37,3.57-8.3,2.35-1.92,5.3-2.94,8.34-2.89h27.52c.88-.03,1.74.29,2.39.9.6.52.94,1.26.94,2.05v6.46c0,.81-.37,1.57-1.03,2.05-.65.53-1.46.82-2.3.81h-23.91c-.68,0-1,.48-1,1.45v7.85c0,1.36.21,2.12.64,2.25l20.84,8.39c1.69.67,3.24,1.63,4.6,2.84,1.16,1.04,2.03,2.36,2.53,3.83.42,1.2.73,2.44.9,3.7.14,1.26.2,2.52.18,3.79v9.66Z"/>
</svg>