<?xml version="1.0" encoding="UTF-8"?>
<svg id="Camada_1" data-name="Camada 1" xmlns="http://www.w3.org/2000/svg" viewBox="0 0 936.79 296.83">
  <defs>
    <style>
      .cls-1 {
        fill: #fff;
      }
    </style>
  </defs>
  <g>
    <path class="cls-1" d="m297.2,69.01l-148.78,149.53L48.98,119.47v177.35H0V0s148.41,148.41,148.41,148.41L297.2,0v69.01Z"/>
    <polygon class="cls-1" points="297.2 96.44 297.2 296.83 248.22 296.83 248.22 145.67 297.2 96.44"/>
  </g>
  <g>
    <path class="cls-1" d="m376.16,260.16c4.89,4.32,13.77,6.48,26.65,6.48,13.91,0,25.8-4.89,35.67-14.66,1.22-1.32,3.71-4.23,7.47-8.74l29.19,10.43c-7.14,9.87-12.32,16.4-15.51,19.6-15.7,15.7-34.64,23.55-56.82,23.55s-40.99-7.85-56.68-23.55c-15.7-15.7-23.55-34.64-23.55-56.82s7.85-41.13,23.55-56.83c15.7-15.7,34.59-23.55,56.68-23.55,18.99,0,35.63,5.74,49.92,17.2,2.35,1.97,4.65,4.09,6.91,6.34.94.94,3.62,3.9,8.04,8.88l-14.67,14.81-76.85,76.85Zm48.79-90.24c-3.29-2.54-10.67-3.81-22.14-3.81-13.82,0-25.64,4.91-35.46,14.73-9.82,9.82-14.73,21.69-14.73,35.6,0,11.37,1.27,18.75,3.81,22.14l68.53-68.67Z"/>
    <path class="cls-1" d="m526.61,147.92v-54.43h29.19v54.43h26.08v29.19h-26.08v115.9h-29.19v-115.9h-26.09v-29.19h26.09Z"/>
    <path class="cls-1" d="m645.05,167.52c10.9-14.76,24.3-22.51,40.19-23.27v30.32c-10.62.56-19.08,4-25.38,10.29-9.5,9.4-14.43,20.59-14.81,33.56v74.59h-29.19v-145.09h29.19v19.6Z"/>
    <path class="cls-1" d="m747.85,94.2c4.04,3.95,6.06,8.79,6.06,14.52s-2.02,10.58-6.06,14.53c-4.04,3.95-8.88,5.92-14.52,5.92s-10.34-1.97-14.38-5.92c-4.04-3.95-6.06-8.79-6.06-14.53s2.02-10.57,6.06-14.52c4.04-3.95,8.83-5.92,14.38-5.92s10.48,1.97,14.52,5.92Zm.14,53.72v145.09h-29.19v-145.09h29.19Z"/>
    <path class="cls-1" d="m907.6,243.24l29.19,10.43c-7.15,9.87-12.32,16.4-15.51,19.6-15.7,15.7-34.64,23.55-56.83,23.55s-40.99-7.85-56.68-23.55c-15.7-15.7-23.55-34.64-23.55-56.82s7.85-41.13,23.55-56.83c15.7-15.7,34.59-23.55,56.68-23.55s41.13,7.85,56.83,23.55c3.2,3.2,8.36,9.64,15.51,19.32l-29.19,10.72c-3.76-4.61-6.3-7.57-7.61-8.88-9.78-9.77-21.62-14.66-35.54-14.66s-25.64,4.91-35.46,14.73c-9.83,9.82-14.73,21.69-14.73,35.6s4.91,25.64,14.73,35.46c9.82,9.83,21.64,14.73,35.46,14.73s25.8-4.89,35.68-14.66c1.22-1.32,3.71-4.23,7.47-8.74Z"/>
  </g>
</svg>