<?xml version="1.0" encoding="UTF-8"?>
<svg id="Camada_2" data-name="Camada 2" xmlns="http://www.w3.org/2000/svg" viewBox="0 0 952.78 557.81">
  <defs>
    <style>
      .cls-1 {
        fill: #fafafa;
      }
    </style>
  </defs>
  <g>
    <g>
      <path class="cls-1" d="m508.44,60.49c-8.56,5.08-16.51,11.07-23.73,17.84,23.9,26.33,38.48,61.26,38.48,99.54s-14.58,73.21-38.48,99.54c7.22,6.77,15.18,12.76,23.73,17.84,27.59-31.34,44.35-72.44,44.35-117.38s-16.76-86.03-44.35-117.38Z"/>
      <path class="cls-1" d="m441.93,310.06c-20.14,10.25-42.9,16.07-67.01,16.07-81.75,0-148.26-66.51-148.26-148.26S293.17,29.61,374.92,29.61c24.11,0,46.86,5.82,67.01,16.07,7.33-7.54,15.28-14.47,23.77-20.71C439.11,9.12,408.06,0,374.92,0c-98.08,0-177.87,79.79-177.87,177.87s79.79,177.87,177.87,177.87c33.14,0,64.18-9.12,90.77-24.97-8.49-6.24-16.44-13.17-23.77-20.71Z"/>
    </g>
    <path class="cls-1" d="m577.86,0c-98.08,0-177.87,79.79-177.87,177.87s79.79,177.87,177.87,177.87,177.87-79.79,177.87-177.87S675.93,0,577.86,0Zm0,326.13c-81.75,0-148.26-66.51-148.26-148.26S496.1,29.61,577.86,29.61s148.26,66.51,148.26,148.26-66.51,148.26-148.26,148.26Z"/>
  </g>
  <g>
    <path class="cls-1" d="m22.45,450.86c-7.96,12.29-11.93,28.02-11.93,47.18,0,17.35,3.8,32.4,11.39,45.12-14.61-9.62-21.91-25.02-21.91-46.21s7.48-37.13,22.45-46.1Zm91.33,46.42c0,13.31-2.03,24.55-6.07,33.73-3.98,9.11-9.58,15.84-16.81,20.17-7.09,4.41-15.37,6.62-24.84,6.62-15.04,0-26.68-5.39-34.93-16.16-8.24-10.77-12.37-25.6-12.37-44.47s4.19-34.64,12.58-45.12c8.39-10.34,19.89-15.51,34.49-15.51s26.54,5.17,35.14,15.51c8.53,10.27,12.8,25.35,12.8,45.23Zm-10.2.11c0-34.64-12.58-51.96-37.75-51.96s-36.99,17.75-36.99,53.26c0,33.41,12.47,50.11,37.42,50.11s37.31-17.14,37.31-51.41Zm6.29,46.42c7.88-10.7,11.82-26.83,11.82-48.38,0-19.02-3.9-33.84-11.71-44.47,14.9,8.89,22.34,24.12,22.34,45.66s-7.48,36.99-22.45,47.18Z"/>
    <path class="cls-1" d="m169.21,440.67v114.32h-4.66c-1.81,0-4.66.22-8.57.65-3.33.43-7.23.65-11.71.65v-1.95c4.63-.51,8.46-2.78,11.5-6.83,3.04-4.05,4.56-11.86,4.56-23.43v-55.75c0-15.76-5.35-24.77-16.05-27.01v-1.95c4.63.51,12.94.94,24.95,1.3Zm11.06,114.32h-3.15v-114.32c4.34,0,8.97-.18,13.88-.54,5.64-.5,10.23-.76,13.78-.76,9.91,0,17.28,3.04,22.13,9.11,4.84,6,7.27,13.41,7.27,22.24,0,14.97-6.33,24.55-18.98,28.74,6.29.87,11.57,2.75,15.84,5.64,4.56,3.11,11.46,9.33,20.72,18.66,14.1,14.32,25.6,21.48,34.49,21.48,1.81,0,3.65-.61,5.53-1.84l.43,1.95c-2.89,3.76-6.91,5.64-12.04,5.64-5.5,0-11.25-2.06-17.25-6.18-5.64-3.9-14.07-11.57-25.27-22.99-13.45-13.88-26.54-20.83-39.27-20.83,7.88,2.46,18.55,10.74,32,24.84,9.47,9.84,17.06,16.99,22.78,21.48,5.78,4.48,11.32,6.72,16.6,6.72v.98c-2.46.87-4.88,1.3-7.27,1.3-7.01,0-13.09-1.77-18.22-5.31-2.75-1.95-6.24-4.94-10.47-8.95s-9.31-9.2-15.24-15.56c-8.68-9.26-15.11-15.55-19.31-18.87-4.48-3.4-8.86-5.78-13.12-7.16v25.71c0,17.28,5.21,26.68,15.62,28.2v1.95c-8.68-.87-15.84-1.3-21.48-1.3Zm5.86-84.5v23.54c4.27,1.08,8.89,1.63,13.88,1.63,16.27,0,24.41-8.46,24.41-25.38,0-15.84-8.06-23.75-24.19-23.75-5.21,0-9.26,1.05-12.15,3.15-1.3,2.89-1.95,9.84-1.95,20.83Zm49.14,23.43c4.7-7.45,7.05-15.65,7.05-24.62,0-8.17-2.71-16.38-8.14-24.62,12.44,5.28,18.66,13.6,18.66,24.95s-5.86,19.6-17.57,24.3Z"/>
    <path class="cls-1" d="m301.43,517.35h2.49c.51,9.26,4.23,16.88,11.17,22.89,6.8,5.93,14.61,8.89,23.43,8.89,6.8,0,12.33-1.92,16.6-5.75,4.27-3.83,6.4-8.42,6.4-13.78,0-5.64-2.06-10.01-6.18-13.12-3.98-3.04-11.82-6.47-23.54-10.3-9.4-3.11-16.09-5.68-20.07-7.7-4.63-2.39-8.24-5.6-10.85-9.65-2.82-4.12-4.23-8.75-4.23-13.88,0-5.71,1.92-11.32,5.75-16.81-.87,2.82-1.3,5.28-1.3,7.38,0,5.64,1.34,10.59,4.01,14.86,2.75,4.41,6.15,7.74,10.2,9.98,4.05,2.31,10.81,4.95,20.28,7.92,12.37,3.76,21.3,7.92,26.79,12.47,5.28,4.41,7.92,10.34,7.92,17.79s-2.75,13.92-8.24,19.85c-5.57,6-13.88,9-24.95,9-4.48,0-10.7-.83-18.66-2.49-6.94-1.45-12.15-2.2-15.62-2.28l-.76-.87c.07-1.23.11-2.82.11-4.77,0-2.31-.22-5.89-.65-10.74-.36-4.84-.54-8.46-.54-10.85,0-3.11.14-5.78.43-8.03Zm76.58-45.34h-2.28c-.07-8.39-3.4-14.61-9.98-18.66-6.44-3.98-14.25-5.97-23.43-5.97-7.3,0-13.31,1.56-18.01,4.66-4.77,3.11-7.16,6.83-7.16,11.17,0,4.63,1.88,8.28,5.64,10.96,3.9,2.89,11.61,6.33,23.1,10.3,10.7,3.69,18.19,6.69,22.45,9,4.56,2.53,8.35,6.15,11.39,10.85,3.04,4.85,4.56,10.23,4.56,16.16,0,9.04-3.33,16.13-9.98,21.26,2.46-3.4,3.69-8.17,3.69-14.32,0-5.78-1.34-10.92-4.01-15.4-2.82-4.56-6.29-8.17-10.41-10.85-4.19-2.75-11.03-5.68-20.5-8.79-14.25-4.7-23.54-8.71-27.88-12.04-4.34-3.4-6.51-8.68-6.51-15.84,0-8.24,3.33-14.71,9.98-19.42,6.65-4.56,16.09-6.83,28.31-6.83,8.31,0,18.48,1.45,30.48,4.34v.76l.22,4.12c0,2.17.07,4.77.22,7.81.22,3.69.33,6.94.33,9.76,0,1.88-.07,4.19-.22,6.94Z"/>
    <path class="cls-1" d="m418.14,450.86c-7.96,12.29-11.93,28.02-11.93,47.18,0,17.35,3.8,32.4,11.39,45.12-14.61-9.62-21.91-25.02-21.91-46.21s7.48-37.13,22.45-46.1Zm91.33,46.42c0,13.31-2.03,24.55-6.07,33.73-3.98,9.11-9.58,15.84-16.81,20.17-7.09,4.41-15.37,6.62-24.84,6.62-15.04,0-26.68-5.39-34.93-16.16-8.24-10.77-12.37-25.6-12.37-44.47s4.19-34.64,12.58-45.12c8.39-10.34,19.89-15.51,34.49-15.51s26.54,5.17,35.14,15.51c8.53,10.27,12.8,25.35,12.8,45.23Zm-10.19.11c0-34.64-12.58-51.96-37.75-51.96s-36.99,17.75-36.99,53.26c0,33.41,12.47,50.11,37.42,50.11s37.31-17.14,37.31-51.41Zm6.29,46.42c7.88-10.7,11.82-26.83,11.82-48.38,0-19.02-3.9-33.84-11.72-44.47,14.9,8.89,22.35,24.12,22.35,45.66s-7.49,36.99-22.45,47.18Z"/>
    <path class="cls-1" d="m564.9,440.67v114.32h-4.66c-1.81,0-4.66.22-8.57.65-3.33.43-7.23.65-11.71.65v-1.95c4.63-.51,8.46-2.78,11.5-6.83,3.04-4.05,4.56-11.86,4.56-23.43v-55.75c0-15.76-5.35-24.77-16.05-27.01v-1.95c4.63.51,12.94.94,24.95,1.3Zm11.06,114.32h-3.15v-114.32c4.34,0,8.96-.18,13.88-.54,5.64-.5,10.23-.76,13.78-.76,9.91,0,17.28,3.04,22.13,9.11,4.84,6,7.27,13.41,7.27,22.24,0,14.97-6.33,24.55-18.98,28.74,6.29.87,11.57,2.75,15.84,5.64,4.56,3.11,11.46,9.33,20.72,18.66,14.1,14.32,25.6,21.48,34.49,21.48,1.81,0,3.65-.61,5.53-1.84l.43,1.95c-2.89,3.76-6.91,5.64-12.04,5.64-5.5,0-11.24-2.06-17.25-6.18-5.64-3.9-14.07-11.57-25.27-22.99-13.45-13.88-26.54-20.83-39.27-20.83,7.88,2.46,18.55,10.74,32,24.84,9.47,9.84,17.07,16.99,22.78,21.48,5.78,4.48,11.32,6.72,16.6,6.72v.98c-2.46.87-4.88,1.3-7.27,1.3-7.01,0-13.09-1.77-18.22-5.31-2.75-1.95-6.24-4.94-10.47-8.95-4.23-4.01-9.31-9.2-15.24-15.56-8.68-9.26-15.11-15.55-19.31-18.87-4.48-3.4-8.86-5.78-13.12-7.16v25.71c0,17.28,5.21,26.68,15.62,28.2v1.95c-8.68-.87-15.84-1.3-21.48-1.3Zm5.86-84.5v23.54c4.27,1.08,8.89,1.63,13.88,1.63,16.27,0,24.41-8.46,24.41-25.38,0-15.84-8.06-23.75-24.19-23.75-5.21,0-9.26,1.05-12.15,3.15-1.3,2.89-1.95,9.84-1.95,20.83Zm49.14,23.43c4.7-7.45,7.05-15.65,7.05-24.62,0-8.17-2.71-16.38-8.14-24.62,12.44,5.28,18.66,13.6,18.66,24.95s-5.86,19.6-17.57,24.3Z"/>
    <path class="cls-1" d="m737.04,440.02c-5.93-.43-10.59-.65-13.99-.65h-3.8v1.95c6.44.29,12.06,1.95,16.87,4.99,4.81,3.04,8.59,7.34,11.34,12.91l-36.01,70.07c-6.51,12.66-13.74,21.01-21.69,25.06v1.95c1.01,0,3.07-.18,6.18-.54,4.55-.51,8.39-.76,11.5-.76,3.4,0,7.23.25,11.5.76,3.04.36,5.17.54,6.4.54v-1.95c-6.07-2.31-9.11-6.22-9.11-11.72,0-3.18.76-6.29,2.28-9.33,1.01-2.02,1.55-3.07,1.63-3.15l.54-1.41,31.56-61.29,29.29,61.29c3.62,7.45,5.42,13.02,5.42,16.7,0,4.99-2.75,7.96-8.24,8.9v1.95c9.83-.72,18.26-1.16,25.27-1.3l-54.78-114.32c-1.88,0-5.93-.22-12.15-.65Z"/>
    <path class="cls-1" d="m805.91,520.93l-25.49-52.82c-.29-.87-.62-1.63-.98-2.28-.36-1.16-1.99-4.81-4.88-10.96-2.6-5.71-4.63-10.45-6.07-14.21h-10.63l54.78,114.32c4.63,0,11.86.43,21.69,1.3v-1.95c-10.05-3.91-19.52-15.04-28.42-33.41Z"/>
    <path class="cls-1" d="m844.64,439.37l22.89,1.3v114.32h-6.73c-4.12,0-9.51.43-16.16,1.3v-1.95c5.35-2.1,9-5.46,10.96-10.09,1.95-4.7,2.93-12.22,2.93-22.56v-51.85c0-11.06-1.45-18.37-4.34-21.91-2.97-3.62-6.15-5.82-9.54-6.62v-1.95Zm80.92,115.63h-50.22v-114.32c4.92-.14,10.41-.43,16.49-.87,5.64-.29,8.24-.43,7.81-.43v1.95c-5.57,1.45-9.51,4.3-11.82,8.57-2.32,4.41-3.47,10.96-3.47,19.63v47.18c0,7.09.36,13.41,1.09,18.98.65,5.86,1.41,9.22,2.28,10.09.79.87,2.89,1.3,6.29,1.3h22.78c8.03,0,14.68-1.26,19.96-3.8,5.28-2.53,9.91-7.52,13.88-14.97h2.17c-.51,3.47-2.13,8.97-4.88,16.49-1.81,4.77-2.97,8.61-3.47,11.5-5.86-.87-12.15-1.3-18.87-1.3Z"/>
  </g>
</svg>