<?xml version="1.0" encoding="utf-8"?>
<!-- Generator: Adobe Illustrator 27.3.1, SVG Export Plug-In . SVG Version: 6.00 Build 0)  -->
<svg version="1.1" id="Camada_2_00000065041515153518011710000005169148391335696521_"
	 xmlns="http://www.w3.org/2000/svg" xmlns:xlink="http://www.w3.org/1999/xlink" x="0px" y="0px" viewBox="0 0 119.8 147"
	 style="enable-background:new 0 0 119.8 147;" xml:space="preserve">
<style type="text/css">
	.st0{fill:#330066;}
</style>
<g id="Camada_1-2">
	<g>
		<path class="st0" d="M81.6,6v29.1c0,1.3,1.1,2.4,2.4,2.4h29.5c1.3,0.2,2.5-0.8,2.7-2.1c0.1-0.8-0.2-1.7-0.9-2.2l-29.4-29
			c-0.8-1-2.4-1.2-3.4-0.3C81.8,4.4,81.5,5.2,81.6,6L81.6,6z"/>
		<path class="st0" d="M116.5,45.5H77c-1.8,0-3.2-1.5-3.2-3.2l0,0v-39c0-1.8-1.4-3.2-3.2-3.2H3.2C1.5,0,0,1.5,0,3.2l0,0v140.6
			c0,1.8,1.5,3.2,3.2,3.2h113.4c1.8,0,3.2-1.4,3.2-3.2V48.6C119.8,46.8,118.3,45.4,116.5,45.5C116.5,45.5,116.5,45.5,116.5,45.5
			L116.5,45.5z M43.6,111.8c-1.1,2.2-2.8,4.2-4.8,5.7c-2.1,1.4-4.4,2.3-6.8,2.8c-2.4,0.5-4.8,0.7-7.2,0.7H21v16.9
			c-0.9,0.1-1.9,0.2-2.7,0.3h-5.2c-0.9,0-1.9-0.1-2.9-0.3V84.4c2.3-0.2,4.6-0.3,6.9-0.5s4.7-0.2,7-0.2c2.5,0,5,0.2,7.5,0.7
			c2.5,0.4,4.8,1.3,6.9,2.7c2.1,1.4,3.8,3.4,5,5.7c1.4,2.9,2.1,6.2,1.9,9.4C45.7,105.5,45,108.8,43.6,111.8L43.6,111.8z M78.6,131.1
			c-0.8,1.6-1.9,3-3.3,4.1c-1.6,1.2-3.4,2.1-5.3,2.7c-2.3,0.7-4.7,1-7,1c-1.2,0-2.3,0-3.3-0.1c-1-0.1-1.9-0.2-2.8-0.4
			c-0.9-0.2-1.8-0.4-2.7-0.6s-1.9-0.6-2.9-1c0.1-1.4,0.3-2.7,0.6-4c0.4-1.4,0.8-2.7,1.5-4c1.5,0.6,3,1.1,4.6,1.4
			c1.5,0.3,3,0.5,4.6,0.5c0.8,0,1.5-0.1,2.3-0.2c0.8-0.1,1.6-0.3,2.3-0.6c0.7-0.3,1.2-0.8,1.7-1.3c1.1-1.4,0.9-3.4-0.4-4.6
			c-0.9-0.6-1.9-1.1-3-1.4l-4.6-1.3c-2.4-0.6-4.6-1.8-6.5-3.5c-1.7-1.9-2.6-4.4-2.4-7c-0.2-3.4,1.3-6.7,4-8.8
			c3.2-2.3,7.1-3.4,11-3.2c1.9,0,3.8,0.2,5.7,0.5c1.9,0.4,3.9,0.9,5.7,1.6c-0.1,1.3-0.4,2.7-0.8,4c-0.3,1.3-0.8,2.5-1.4,3.6
			c-1.3-0.5-2.6-0.9-3.9-1.3c-1.4-0.4-2.9-0.6-4.4-0.7c-1.4-0.1-2.7,0.2-3.9,0.8c-1.4,0.9-1.8,2.7-1,4.1c0.2,0.3,0.4,0.5,0.6,0.7
			c0.9,0.6,1.9,1,2.9,1.2l4.2,1.2c1.3,0.4,2.5,0.9,3.7,1.4c1.1,0.5,2,1.3,2.9,2.1c0.8,0.9,1.4,2,1.8,3.1c0.5,1.4,0.7,3,0.7,4.5
			C79.8,127.6,79.4,129.4,78.6,131.1L78.6,131.1L78.6,131.1z M31.4,94.9c-0.9-0.8-2-1.3-3.2-1.6c-1.2-0.3-2.4-0.5-3.6-0.5h-1.5
			l-2,0.2v18.9c0.5,0.1,1.1,0.2,1.7,0.2h1.9c1.2,0,2.4-0.2,3.6-0.5c1.2-0.3,2.2-0.9,3.2-1.6c1-0.8,1.7-1.8,2.2-2.9
			c0.6-1.4,0.8-2.9,0.8-4.5c0-1.6-0.2-3.2-0.8-4.6C33.1,96.7,32.3,95.7,31.4,94.9L31.4,94.9L31.4,94.9z"/>
	</g>
</g>
</svg>
