<?xml version="1.0" encoding="utf-8"?>
<!-- Generator: Adobe Illustrator 27.3.1, SVG Export Plug-In . SVG Version: 6.00 Build 0)  -->
<svg version="1.1" id="Camada_2_00000126285371855319650460000003708035148911715456_"
	 xmlns="http://www.w3.org/2000/svg" xmlns:xlink="http://www.w3.org/1999/xlink" x="0px" y="0px" viewBox="0 0 146.7 180.1"
	 style="enable-background:new 0 0 146.7 180.1;" xml:space="preserve">
<style type="text/css">
	.st0{fill:#330066;}
</style>
<g id="Camada_1-2">
	<g>
		<path class="st0" d="M99.9,7.4v35.7c0,1.6,1.3,3,3,3H139c1.6,0.2,3.1-1,3.3-2.6c0.1-1-0.3-2-1.1-2.7l-36-35.6
			c-1-1.3-2.9-1.5-4.2-0.4C100.2,5.4,99.8,6.4,99.9,7.4z"/>
		<path class="st0" d="M41.1,119.9c0.7,1.8,1,3.7,1,5.7c0,1.9-0.3,3.8-1,5.5c-0.6,1.4-1.5,2.6-2.7,3.6c-1.1,0.9-2.4,1.6-3.8,2
			c-1.5,0.4-3,0.6-4.5,0.6h-2.3c-0.7,0-1.4-0.1-2-0.2v-23.1l2.5-0.2h1.9c1.5,0,3,0.2,4.5,0.6c1.4,0.4,2.7,1,3.8,2
			C39.6,117.2,40.5,118.5,41.1,119.9L41.1,119.9z"/>
		<path class="st0" d="M142.7,55.7H94.4c-2.2,0-4-1.8-4-4l0,0V4c0-2.2-1.8-4-4-4H4C1.8,0,0,1.8,0,4l0,0v172.2c0,2.2,1.8,4,4,4h138.8
			c2.2,0,4-1.8,4-4V59.5C146.6,57.4,144.9,55.7,142.7,55.7z M53.4,136.9c-1.4,2.8-3.5,5.1-6.1,6.9c-2.5,1.7-5.3,2.9-8.3,3.5
			c-3,0.6-6,0.9-9,0.9h-4.2v20.7c-1.1,0.2-2.3,0.3-3.4,0.4h-6.4c-1.2,0-2.3-0.1-3.6-0.4v-65.5c2.8-0.2,5.6-0.4,8.4-0.6
			s5.7-0.2,8.6-0.2c3.1,0,6.2,0.3,9.2,0.9c3,0.5,5.9,1.7,8.4,3.3c2.6,1.8,4.7,4.2,6.2,6.9c1.7,3.6,2.5,7.6,2.4,11.5
			C55.9,129.3,55.1,133.3,53.4,136.9L53.4,136.9z M93.7,129.8c-0.1,1.2-0.3,2.3-0.7,3.4c-0.7-0.1-1.5-0.2-2.2-0.2h-1.5
			c-1.2,0-2.3,0.1-3.5,0.3c-1.3,0.2-2.6,0.8-3.6,1.7c-1.3,1.1-2.3,2.5-3,4.1c-0.8,2.5-1.1,5-1,7.6v22.3c-1.1,0.2-2.2,0.3-3.3,0.4
			h-6.3c-1,0-2.2-0.2-3.3-0.4V122c0.9-0.2,1.8-0.3,2.6-0.4c0.9-0.1,1.8-0.1,2.7,0c0.9,0,1.8,0.1,2.7,0.2c0.9,0,1.7,0.3,2.6,0.4
			c0.2,0.4,0.4,0.9,0.5,1.3c0,0.6,0.3,1.2,0.4,1.8s0.2,1.3,0.3,1.9s0.2,1.1,0.2,1.6c1.4-1.9,3-3.6,4.9-5.1c2.1-1.6,4.7-2.4,7.4-2.3
			h2.1c0.6,0,1.2,0.1,1.7,0.3c0.1,0.7,0.2,1.4,0.3,2.1v2.4C93.7,127.3,93.8,128.6,93.7,129.8L93.7,129.8z"/>
	</g>
</g>
</svg>
