<?xml version="1.0" encoding="utf-8"?>
<!-- Generator: Adobe Illustrator 27.3.1, SVG Export Plug-In . SVG Version: 6.00 Build 0)  -->
<svg version="1.1"
	 id="Camada_1" xmlns:inkscape="http://www.inkscape.org/namespaces/inkscape" xmlns:svg="http://www.w3.org/2000/svg" xmlns:rdf="http://www.w3.org/1999/02/22-rdf-syntax-ns#" xmlns:sodipodi="http://sodipodi.sourceforge.net/DTD/sodipodi-0.dtd" xmlns:dc="http://purl.org/dc/elements/1.1/" xmlns:cc="http://creativecommons.org/ns#"
	 xmlns="http://www.w3.org/2000/svg" xmlns:xlink="http://www.w3.org/1999/xlink" x="0px" y="0px" viewBox="0 0 16.9 21.2"
	 style="enable-background:new 0 0 16.9 21.2;" xml:space="preserve">
<style type="text/css">
	.st0{fill:#330066;}
</style>
<g transform="translate(0,-280.06665)">
	<g transform="matrix(0.26458334,0,0,0.26458334,-171.45,-151.8292)">
		<path class="st0" d="M674,1664.4c0,3.3,2.7,6,6,6s6-2.7,6-6c0-3.3-2.7-6-6-6S674,1661.1,674,1664.4z M676,1664.4c0-2.2,1.8-4,4-4
			s4,1.8,4,4c0,2.2-1.8,4-4,4S676,1666.6,676,1664.4z"/>
		<path class="st0" d="M652,1664.4c0,1.9,0.9,3.6,2.4,5c1.5,1.4,3.6,2.7,6.1,3.7c5.1,2.1,11.9,3.3,19.5,3.3s14.4-1.2,19.5-3.3
			c2.5-1,4.6-2.3,6.1-3.7s2.4-3.2,2.4-5s-0.9-3.6-2.4-5c-1.5-1.4-3.6-2.7-6.1-3.7c-5.1-2.1-11.9-3.3-19.5-3.3s-14.4,1.2-19.5,3.3
			c-2.5,1-4.6,2.3-6.1,3.7C652.9,1660.8,652,1662.5,652,1664.4z M654,1664.4c0-1.2,0.6-2.4,1.8-3.6c1.2-1.2,3.1-2.3,5.5-3.3
			c4.7-1.9,11.4-3.1,18.7-3.1s14,1.2,18.7,3.1c2.4,1,4.2,2.1,5.5,3.3s1.8,2.4,1.8,3.6s-0.6,2.4-1.8,3.6c-1.2,1.2-3.1,2.3-5.5,3.3
			c-4.7,1.9-11.4,3.1-18.7,3.1s-14-1.2-18.7-3.1c-2.4-1-4.2-2.1-5.5-3.3C654.6,1666.7,654,1665.6,654,1664.4z"/>
		<path class="st0" d="M694.6,1689.6c1.6-0.9,2.6-2.6,3.1-4.7s0.4-4.6,0-7.3c-0.9-5.6-3.4-12.4-7.3-19.2c-3.9-6.8-8.6-12.4-13-15.9
			c-2.2-1.8-4.3-3-6.4-3.7s-4-0.6-5.6,0.3c-1.6,0.9-2.6,2.6-3.1,4.7c-0.5,2.1-0.4,4.6,0,7.3c0.9,5.6,3.4,12.4,7.3,19.2
			c3.9,6.8,8.6,12.4,13,15.9c2.2,1.8,4.3,3,6.4,3.7C691,1690.6,693,1690.6,694.6,1689.6L694.6,1689.6z M693.6,1687.9
			c-1,0.6-2.3,0.7-4,0.1c-1.7-0.5-3.6-1.7-5.7-3.3c-4.1-3.3-8.7-8.7-12.5-15.4c-3.8-6.6-6.3-13.3-7.1-18.5c-0.4-2.6-0.4-4.9,0-6.6
			c0.4-1.7,1.1-2.8,2.1-3.4c1-0.6,2.3-0.7,4-0.1c1.7,0.5,3.6,1.7,5.7,3.3c4.1,3.3,8.7,8.7,12.5,15.4c3.8,6.6,6.3,13.3,7.1,18.5
			c0.4,2.6,0.4,4.9,0,6.6C695.3,1686.2,694.6,1687.3,693.6,1687.9L693.6,1687.9z"/>
		<path class="st0" d="M665.4,1689.6c-1.6-0.9-2.6-2.6-3.1-4.7c-0.5-2.1-0.4-4.6,0-7.3c0.9-5.6,3.4-12.4,7.3-19.2
			c3.9-6.8,8.6-12.4,13-15.9c2.2-1.8,4.3-3,6.4-3.7c2-0.6,4-0.6,5.6,0.3c1.6,0.9,2.6,2.6,3.1,4.7c0.5,2.1,0.4,4.6,0,7.3
			c-0.9,5.6-3.4,12.4-7.3,19.2c-3.9,6.8-8.6,12.4-13,15.9c-2.2,1.8-4.3,3-6.4,3.7C669,1690.6,667,1690.6,665.4,1689.6L665.4,1689.6z
			 M666.4,1687.9c1,0.6,2.3,0.7,4,0.1c1.7-0.5,3.6-1.7,5.7-3.3c4.1-3.3,8.7-8.7,12.5-15.4c3.8-6.6,6.3-13.3,7.1-18.5
			c0.4-2.6,0.4-4.9,0-6.6c-0.4-1.7-1.1-2.8-2.1-3.4c-1-0.6-2.3-0.7-4-0.1c-1.7,0.5-3.6,1.7-5.7,3.3c-4.1,3.3-8.7,8.7-12.5,15.4
			c-3.8,6.6-6.3,13.3-7.1,18.5c-0.4,2.6-0.4,4.9,0,6.6C664.7,1686.2,665.4,1687.3,666.4,1687.9L666.4,1687.9z"/>
	</g>
</g>
</svg>
