<?xml version="1.0" encoding="UTF-8"?>
<svg id="Camada_1" data-name="Camada 1" xmlns="http://www.w3.org/2000/svg" viewBox="0 0 975.3 369.84">
  <defs>
    <style>
      .cls-1 {
        fill: #fff;
      }
    </style>
  </defs>
  <polygon class="cls-1" points="430.95 90.44 494.69 90.44 494.69 106.4 467.56 106.4 470.81 109.55 470.81 157.33 454.85 157.33 454.85 106.4 430.97 106.4 430.97 90.44 430.95 90.44"/>
  <polygon class="cls-1" points="516.56 141.36 557.93 141.36 557.93 157.33 500.6 157.33 500.6 90.44 556.31 90.44 556.31 106.4 513.32 106.4 516.58 109.55 516.58 115.95 548.39 115.95 548.39 131.81 516.58 131.81 516.58 141.36 516.56 141.36"/>
  <polygon class="cls-1" points="617.36 135.07 633.32 135.07 633.32 144.62 620.51 157.33 577.52 157.33 564.82 144.62 564.82 103.16 577.52 90.46 620.51 90.46 633.32 103.16 633.32 112.72 617.36 112.72 617.36 109.57 614.21 106.42 577.52 106.42 580.78 109.57 580.78 138.24 583.93 141.39 614.21 141.39 617.36 138.24 617.36 135.09 617.36 135.07"/>
  <polygon class="cls-1" points="689.3 90.44 705.26 90.44 705.26 157.33 689.3 157.33 689.3 131.81 654.22 131.81 657.48 135.07 657.48 157.33 641.52 157.33 641.52 90.44 657.48 90.44 657.48 115.96 689.3 115.96 689.3 90.44"/>
  <rect class="cls-1" x="430.93" y="212.49" width="15.96" height="66.89"/>
  <polygon class="cls-1" points="505.19 212.52 521.15 212.52 521.15 279.4 505.19 279.4 473.37 238.03 473.37 279.4 457.41 279.4 457.41 212.52 473.37 212.52 505.19 253.89 505.19 212.52"/>
  <path class="cls-1" d="m587.84,212.52l12.71,12.7v41.46l-12.71,12.7h-44.63l-12.7-12.7v-41.46l12.7-12.7h44.63Zm-3.15,47.78v-28.66l-3.26-3.15h-38.22l3.26,3.15v28.66l3.15,3.15h31.82l3.26-3.15Z"/>
  <polygon class="cls-1" points="678.89 212.52 648.61 279.4 632.75 279.4 602.47 212.52 619.96 212.52 640.69 258.28 661.42 212.52 678.91 212.52 678.89 212.52"/>
  <path class="cls-1" d="m745.87,279.38h-17.49l-5.84-12.7h-34.4l3.15,3.15-4.39,9.55h-17.49l30.28-66.89h15.85l30.28,66.89h.04Zm-45.96-28.67h15.48l-7.74-17.1-7.74,17.1Z"/>
  <polygon class="cls-1" points="737.1 212.52 800.84 212.52 800.84 228.48 773.7 228.48 776.96 231.63 776.96 279.4 761 279.4 761 228.48 737.1 228.48 737.1 212.52"/>
  <rect class="cls-1" x="806.74" y="212.49" width="15.96" height="66.89"/>
  <path class="cls-1" d="m889.39,212.52l12.71,12.7v41.46l-12.71,12.7h-44.63l-12.7-12.7v-41.46l12.7-12.7h44.63Zm-3.15,47.78v-28.66l-3.26-3.15h-38.22l3.26,3.15v28.66l3.15,3.15h31.82l3.26-3.15Z"/>
  <polygon class="cls-1" points="959.34 212.52 975.3 212.52 975.3 279.4 959.34 279.4 927.53 238.03 927.53 279.4 911.57 279.4 911.57 212.52 927.53 212.52 959.34 253.89 959.34 212.52"/>
  <path class="cls-1" d="m117.38,369.84h147.84L117.38,222.01v147.84Zm11.74-119.48l107.73,107.73h-107.73v-107.73Z"/>
  <path class="cls-1" d="m5.97,246.56l92.16,115.59,23.4-207.75L5.97,246.56Zm83.68,86.09L22.48,248.42l84.23-67.17-17.06,151.4Z"/>
  <path class="cls-1" d="m32.89,82.59L0,226.71l177-111.23L32.89,82.59Zm8.83,14.06l105.04,23.96L17.75,201.67l23.96-105.04v.02Z"/>
  <path class="cls-1" d="m177.88,1.4L44.69,65.53l197.32,69.05L177.88,1.4Zm-5.49,15.68l46.75,97.06L75.33,63.83l97.06-46.75Z"/>
  <path class="cls-1" d="m331.75,64.13L198.56,0l69.05,197.32,64.13-133.18Zm-15.68,5.49l-46.75,97.06L219.01,22.87l97.06,46.75Z"/>
  <path class="cls-1" d="m378.63,223.56l-32.89-144.12-111.23,177,144.12-32.89Zm-14.06-8.83l-105.04,23.96,81.06-129.01,23.99,105.04Z"/>
  <path class="cls-1" d="m283.23,359.61l92.17-115.59-207.75,23.42,115.56,92.17h.02Zm-1.86-16.51l-84.23-67.17,151.4-17.05-67.17,84.23Z"/>
</svg>